<svg xmlns="http://www.w3.org/2000/svg" width="100" height="150" viewBox="0 0 100 150">
  <rect width="100" height="150" fill="#FFFFFF" rx="5" stroke="#CCCCCC" stroke-width="0.5"/>
  <g fill="#000000" font-family="Arial, sans-serif" font-weight="bold" font-size="10" letter-spacing="2">
    <text x="9" y="16" transform="rotate(90 9 16)">JOKER</text>
  </g>
  <g fill="#000000" font-family="Arial, sans-serif" font-weight="bold" font-size="10" letter-spacing="2" transform="rotate(180 50 75)">
    <text x="9" y="16" transform="rotate(90 9 16)">JOKER</text>
  </g>
  <g transform="translate(18, 43)">
    <path d="M 32 28 Q 32 12 18 10 Q 5 8 13 22 Q 22 25 32 28 Z" fill="#000000" />
    <path d="M 32 28 Q 32 12 46 10 Q 59 8 51 22 Q 42 25 32 28 Z" fill="#000000" />
    <path d="M 32 20 Q 32 2 32 0 Q 40 5 32 20 Z" fill="#000000" />
    <path d="M 12 32 Q 10 52 32 52 Q 54 52 52 32 Q 50 20 32 20 Q 14 20 12 32 Z" fill="#FFFFFF" stroke="#000000" stroke-width="2.5" stroke-linejoin="round"/>
    <path d="M 24 21 Q 12 16 6 22 Q 0 30 6 36 Q 14 42 16 34 Q 18 24 24 21 Z" fill="#000000" stroke="#000000" stroke-width="1.5" stroke-linejoin="round"/>
    <circle cx="5" cy="37" r="2.5" fill="#FFFFFF" stroke="#000000" stroke-width="1.5"/>
    <path d="M 40 21 Q 48 16 54 22 Q 60 30 54 36 Q 46 42 44 34 Q 42 24 40 21 Z" fill="#000000" stroke="#000000" stroke-width="1.5" stroke-linejoin="round"/>
    <circle cx="59" cy="37" r="2.5" fill="#FFFFFF" stroke="#000000" stroke-width="1.5"/>
    <path d="M 20 22 Q 32 5 32 2 Q 32 5 44 22 Q 32 25 20 22 Z" fill="#000000" stroke="#000000" stroke-width="1.5" stroke-linejoin="round"/>
    <circle cx="32" cy="1" r="2.5" fill="#FFFFFF" stroke="#000000" stroke-width="1.5"/>

    <circle cx="24" cy="36" r="3.5" fill="#000000"/>
    <circle cx="22.5" cy="34.5" r="1" fill="#FFFFFF"/>
    <circle cx="40" cy="36" r="3.5" fill="#000000"/>
    <circle cx="38.5" cy="34.5" r="1" fill="#FFFFFF"/>
    <path d="M 28 42 Q 32 46 36 42" fill="none" stroke="#000000" stroke-width="2.5" stroke-linecap="round"/>
  </g>
</svg>